<svg width="24" height="25" viewBox="0 0 24 25" fill="none" xmlns="http://www.w3.org/2000/svg">
<path d="M12 2.24609C6.49 2.24609 2 6.73609 2 12.2461C2 17.7561 6.49 22.2461 12 22.2461C17.51 22.2461 22 17.7561 22 12.2461C22 6.73609 17.51 2.24609 12 2.24609ZM15.36 14.5461C15.65 14.8361 15.65 15.3161 15.36 15.6061C15.21 15.7561 15.02 15.8261 14.83 15.8261C14.64 15.8261 14.45 15.7561 14.3 15.6061L12 13.3061L9.7 15.6061C9.55 15.7561 9.36 15.8261 9.17 15.8261C8.98 15.8261 8.79 15.7561 8.64 15.6061C8.35 15.3161 8.35 14.8361 8.64 14.5461L10.94 12.2461L8.64 9.94609C8.35 9.65609 8.35 9.17609 8.64 8.88609C8.93 8.59609 9.41 8.59609 9.7 8.88609L12 11.1861L14.3 8.88609C14.59 8.59609 15.07 8.59609 15.36 8.88609C15.65 9.17609 15.65 9.65609 15.36 9.94609L13.06 12.2461L15.36 14.5461Z" fill="#596780"/>
</svg>
