<svg width="32" height="33" viewBox="0 0 32 33" fill="none" xmlns="http://www.w3.org/2000/svg">
<path d="M29.3331 7.85942V20.6328C29.3331 24.3128 26.3464 27.2994 22.6664 27.2994H9.3331C8.71977 27.2994 8.1331 27.2194 7.55977 27.0594C6.7331 26.8328 6.46643 25.7794 7.07977 25.1661L21.2531 10.9928C21.5464 10.6994 21.9864 10.6328 22.3998 10.7128C22.8264 10.7928 23.2931 10.6728 23.6264 10.3528L27.0531 6.91276C28.3064 5.65942 29.3331 6.07276 29.3331 7.85942Z" fill="#0066FF"/>
<path d="M19.5203 10.0595L5.56033 24.0195C4.92033 24.6595 3.85366 24.4995 3.42699 23.6995C2.93366 22.7928 2.66699 21.7395 2.66699 20.6328V7.85945C2.66699 6.07279 3.69366 5.65945 4.94699 6.91279L8.38699 10.3661C8.90699 10.8728 9.76033 10.8728 10.2803 10.3661L15.0537 5.57945C15.5737 5.05945 16.427 5.05945 16.947 5.57945L19.5337 8.16612C20.0403 8.68612 20.0403 9.53945 19.5203 10.0595Z" fill="#0066FF"/>
</svg>
