<svg width="25" height="25" viewBox="0 0 25 25" fill="none" xmlns="http://www.w3.org/2000/svg">
<g id="Iconly/Bold/Document">
<g id="Document">
<path id="Document_2" fill-rule="evenodd" clip-rule="evenodd" d="M8.2164 2.00146H16.761C19.9103 2.00146 21.6639 3.78146 21.6639 6.83146V17.1615C21.6639 20.2615 19.9103 22.0015 16.761 22.0015H8.2164C5.11706 22.0015 3.3125 20.2615 3.3125 17.1615V6.83146C3.3125 3.78146 5.11706 2.00146 8.2164 2.00146ZM8.49162 6.66153V6.65153H11.539C11.9784 6.65153 12.3352 7.00153 12.3352 7.43053C12.3352 7.87153 11.9784 8.22153 11.539 8.22153H8.49162C8.05221 8.22153 7.6964 7.87153 7.6964 7.44153C7.6964 7.01153 8.05221 6.66153 8.49162 6.66153ZM8.49162 12.7416H16.4847C16.9231 12.7416 17.2799 12.3916 17.2799 11.9616C17.2799 11.5316 16.9231 11.1806 16.4847 11.1806H8.49162C8.05221 11.1806 7.6964 11.5316 7.6964 11.9616C7.6964 12.3916 8.05221 12.7416 8.49162 12.7416ZM8.49165 17.3115H16.4847C16.8915 17.2715 17.1984 16.9305 17.1984 16.5315C17.1984 16.1215 16.8915 15.7815 16.4847 15.7415H8.49165C8.18579 15.7115 7.89013 15.8515 7.72701 16.1115C7.56388 16.3615 7.56388 16.6915 7.72701 16.9515C7.89013 17.2015 8.18579 17.3515 8.49165 17.3115Z" fill="#0066FF"/>
</g>
</g>
</svg>
