<svg width="25" height="24" viewBox="0 0 25 24" fill="none" xmlns="http://www.w3.org/2000/svg">
<g id="Iconly/Bold/Folder">
<g id="Folder">
<path id="Folder_2" fill-rule="evenodd" clip-rule="evenodd" d="M13.9665 4.8802H17.0964C20.8585 4.8802 22.6936 6.8502 22.6834 10.8902V15.7602C22.6834 19.6202 20.257 22.0002 16.3114 22.0002H8.65479C4.72963 22.0002 2.29297 19.6202 2.29297 15.7502V8.2402C2.29297 4.1002 4.16889 2.0002 7.86976 2.0002H9.4806C10.4298 1.9902 11.3157 2.4202 11.8969 3.1502L12.7941 4.3202C13.0795 4.6702 13.5077 4.8802 13.9665 4.8802ZM7.76785 15.2902H17.2086C17.6266 15.2902 17.9631 14.9502 17.9631 14.5402C17.9631 14.1202 17.6266 13.7902 17.2086 13.7902H7.76785C7.33965 13.7902 7.00321 14.1202 7.00321 14.5402C7.00321 14.9502 7.33965 15.2902 7.76785 15.2902Z" fill="#0066FF"/>
</g>
</g>
</svg>
