<svg width="32" height="33" viewBox="0 0 32 33" fill="none" xmlns="http://www.w3.org/2000/svg">
<path d="M25.0664 13.4595C23.5597 13.4595 22.2131 14.1928 21.3731 15.3128C20.5331 14.1928 19.1864 13.4595 17.6797 13.4595C15.1331 13.4595 13.0664 15.5395 13.0664 18.0995C13.0664 19.0861 13.2264 20.0061 13.4931 20.8461C14.7997 24.9928 18.8531 27.4861 20.8531 28.1661C21.1331 28.2595 21.5997 28.2595 21.8797 28.1661C23.8797 27.4861 27.9331 25.0061 29.2397 20.8461C29.5197 19.9928 29.6664 19.0861 29.6664 18.0995C29.6797 15.5395 27.6131 13.4595 25.0664 13.4595Z" fill="#0066FF"/>
<path d="M27.667 11.3661C27.667 11.6727 27.3603 11.8727 27.067 11.7927C25.267 11.3261 23.2937 11.7127 21.8003 12.7794C21.507 12.9927 21.107 12.9927 20.827 12.7794C19.7737 12.0061 18.4937 11.5794 17.147 11.5794C13.707 11.5794 10.907 14.3927 10.907 17.8594C10.907 21.6194 12.707 24.4327 14.5203 26.3127C14.6137 26.4061 14.5337 26.5661 14.4137 26.5127C10.7737 25.2727 2.66699 20.1261 2.66699 11.3661C2.66699 7.49939 5.77366 4.37939 9.61366 4.37939C11.8937 4.37939 13.907 5.47273 15.1737 7.16606C16.4537 5.47273 18.467 4.37939 20.7337 4.37939C24.5603 4.37939 27.667 7.49939 27.667 11.3661Z" fill="#0066FF"/>
</svg>
