<svg width="25" height="24" viewBox="0 0 25 24" fill="none" xmlns="http://www.w3.org/2000/svg">
<g id="Iconly/Bold/Search">
<g id="Search">
<path id="Search_2" fill-rule="evenodd" clip-rule="evenodd" d="M2.29297 10.6699C2.29297 5.88166 6.20828 2 11.0381 2C13.3574 2 15.5818 2.91344 17.2218 4.53936C18.8618 6.16529 19.7832 8.37052 19.7832 10.6699C19.7832 15.4582 15.8679 19.3399 11.0381 19.3399C6.20828 19.3399 2.29297 15.4582 2.29297 10.6699ZM19.6385 17.6543L22.243 19.7164H22.2882C22.8152 20.2388 22.8152 21.0858 22.2882 21.6082C21.7613 22.1306 20.907 22.1306 20.38 21.6082L18.2186 19.1784C18.0143 18.9766 17.8995 18.7023 17.8995 18.4164C17.8995 18.1304 18.0143 17.8561 18.2186 17.6543C18.6127 17.2704 19.2444 17.2704 19.6385 17.6543Z" fill="#0066FF"/>
</g>
</g>
</svg>
