<svg width="24" height="25" viewBox="0 0 24 25" fill="none" xmlns="http://www.w3.org/2000/svg">
<path d="M12 2.24609C6.49 2.24609 2 6.73609 2 12.2461C2 17.7561 6.49 22.2461 12 22.2461C17.51 22.2461 22 17.7561 22 12.2461C22 6.73609 17.51 2.24609 12 2.24609ZM16.78 9.94609L11.11 15.6161C10.97 15.7561 10.78 15.8361 10.58 15.8361C10.38 15.8361 10.19 15.7561 10.05 15.6161L7.22 12.7861C6.93 12.4961 6.93 12.0161 7.22 11.7261C7.51 11.4361 7.99 11.4361 8.28 11.7261L10.58 14.0261L15.72 8.88609C16.01 8.59609 16.49 8.59609 16.78 8.88609C17.07 9.17609 17.07 9.64609 16.78 9.94609Z" fill="#9CD323"/>
</svg>
