<svg width="31" height="37" viewBox="0 0 31 37" fill="none" xmlns="http://www.w3.org/2000/svg">
<path d="M0.651079 19.8854C0.856731 19.6785 1.1011 19.5143 1.37017 19.4023C1.63924 19.2903 1.92772 19.2326 2.21906 19.2326C2.51041 19.2326 2.79888 19.2903 3.06795 19.4023C3.33702 19.5143 3.58139 19.6785 3.78704 19.8854L13.2853 29.4092V2.21956C13.2853 1.6309 13.5186 1.06635 13.9337 0.650097C14.3488 0.233849 14.9119 0 15.499 0C16.086 0 16.6491 0.233849 17.0642 0.650097C17.4794 1.06635 17.7126 1.6309 17.7126 2.21956V29.4092L27.2146 19.8854C27.6304 19.4685 28.1944 19.2342 28.7825 19.2342C29.3706 19.2342 29.9347 19.4685 30.3505 19.8854C30.7664 20.3024 31 20.8679 31 21.4576C31 22.0473 30.7664 22.6128 30.3505 23.0298L17.0688 36.3472C16.8631 36.5541 16.6188 36.7183 16.3497 36.8303C16.0806 36.9423 15.7921 37 15.5008 37C15.2095 37 14.921 36.9423 14.6519 36.8303C14.3828 36.7183 14.1385 36.5541 13.9328 36.3472L0.651079 23.0298C0.44471 22.8236 0.280968 22.5786 0.169241 22.3088C0.0575161 22.039 0 21.7497 0 21.4576C0 21.1655 0.0575161 20.8762 0.169241 20.6064C0.280968 20.3367 0.44471 20.0916 0.651079 19.8854Z" fill="#0066FF"/>
</svg>
