<svg width="24" height="25" viewBox="0 0 24 25" fill="none" xmlns="http://www.w3.org/2000/svg">
<path d="M6.54534 12.5776H11.1408V17.1731C11.1408 17.6401 11.525 18.0319 11.9996 18.0319C12.4742 18.0319 12.8584 17.6401 12.8584 17.1731V12.5776H17.4538C17.9209 12.5776 18.3126 12.1934 18.3126 11.7188C18.3126 11.2442 17.9209 10.86 17.4538 10.86H12.8584V6.26458C12.8584 5.7975 12.4742 5.40576 11.9996 5.40576C11.525 5.40576 11.1408 5.7975 11.1408 6.26458V10.86H6.54534C6.07826 10.86 5.68652 11.2442 5.68652 11.7188C5.68652 12.1934 6.07826 12.5776 6.54534 12.5776Z" fill="#0D121F"/>
</svg>
